<?xml version="1.0" encoding="utf-8"?>
<!-- Generated by IcoMoon.io -->
<!DOCTYPE svg PUBLIC "-//W3C//DTD SVG 1.1//EN" "http://www.w3.org/Graphics/SVG/1.1/DTD/svg11.dtd">
<svg version="1.1" xmlns="http://www.w3.org/2000/svg" xmlns:xlink="http://www.w3.org/1999/xlink" width="512" height="512" viewBox="0 0 512 512">
<g>
</g>
	<path d="M155.371 238.879c0-63.109 51.344-114.453 114.442-114.453v-28.395c-78.786 0-142.848 64.072-142.848 142.838h28.406z" fill="#000000" />
	<path d="M384.256 238.879c0 63.109-51.344 114.442-114.442 114.442v28.396c78.756 0 142.838-64.082 142.838-142.848h-28.395z" fill="#000000" />
	<path d="M104.407 228.28c0-84.736 68.936-153.702 153.682-153.702v-18.913c-95.161 0-172.615 77.445-172.615 172.615h18.934z" fill="#000000" />
	<path d="M430.725 247.214c0 84.746-68.935 153.702-153.702 153.702v18.923c95.181 0 172.636-77.445 172.636-172.626h-18.934z" fill="#000000" />
	<path d="M217.682 249.232l-119.255 145.91 25.118 25.098 145.879-117.658c0 0-48.937-14.121-51.743-53.351z" fill="#000000" />
	<path d="M103.127 412.416c0 0-33.751 36.803-40.776 43.92z" fill="#000000" />
	<path d="M327.885 305.438c12.524-14.438 20.163-33.26 20.163-53.904 0-45.496-36.885-82.361-82.381-82.361-20.93 0-39.987 7.885-54.538 20.756 5.304 24.627 28.805 101.13 116.757 115.507z" fill="#000000" />
	<path d="M196.321 207.166c-8.192 12.831-13.025 27.996-13.025 44.37 0 45.497 36.905 82.381 82.361 82.381 16.302 0 31.457-4.782 44.237-12.943-74.291-18.954-103.147-80.292-113.572-113.808z" fill="#000000" />
</svg>
